<svg xmlns="http://www.w3.org/2000/svg" xmlns:xlink="http://www.w3.org/1999/xlink" contentStyleType="text/css" data-diagram-type="CLASS" height="1278px" preserveAspectRatio="none" style="width:413px;height:1278px;background:#FFFFFF;" version="1.1" viewBox="0 0 413 1278" width="413px" zoomAndPan="magnify"><defs/><g><!--class organization--><g class="entity" data-entity="organization" data-source-line="5" data-uid="ent0002" id="entity_organization"><rect fill="#F1F1F1" height="129.4844" rx="2.5" ry="2.5" style="stroke:#181818;stroke-width:0.5;" width="164.0244" x="124.5" y="7"/><ellipse cx="158.5239" cy="23" fill="#ADD1B2" rx="11" ry="11" style="stroke:#181818;stroke-width:1;"/><path d="M162.6333,29 L154.9146,29 L154.9146,16.6094 L162.6333,16.6094 L162.6333,18.7656 L157.3677,18.7656 L157.3677,21.4375 L162.1333,21.4375 L162.1333,23.5938 L157.3677,23.5938 L157.3677,26.8438 L162.6333,26.8438 L162.6333,29 Z " fill="#000000"/><text fill="#000000" font-family="sans-serif" font-size="14" lengthAdjust="spacing" textLength="89.749" x="176.7515" y="27.8467">Organization</text><line style="stroke:#181818;stroke-width:0.5;" x1="125.5" x2="287.5244" y1="39" y2="39"/><text fill="#000000" font-family="sans-serif" font-size="14" lengthAdjust="spacing" text-decoration="underline" textLength="12.7764" x="130.5" y="55.9951">id</text><text fill="#000000" font-family="sans-serif" font-size="14" lengthAdjust="spacing" textLength="59.5273" x="143.2764" y="55.9951">: Integer</text><text fill="#000000" font-family="sans-serif" font-size="14" lengthAdjust="spacing" textLength="90.6514" x="130.5" y="72.292">name: String</text><text fill="#000000" font-family="sans-serif" font-size="14" lengthAdjust="spacing" textLength="130.751" x="130.5" y="88.5889">invite_code: String</text><text fill="#000000" font-family="sans-serif" font-size="14" lengthAdjust="spacing" textLength="152.0244" x="130.5" y="104.8857">created_at: DateTime</text><text fill="#000000" font-family="sans-serif" font-size="14" lengthAdjust="spacing" textLength="126.5947" x="130.5" y="121.1826">is_active: Boolean</text><line style="stroke:#181818;stroke-width:0.5;" x1="125.5" x2="287.5244" y1="128.4844" y2="128.4844"/></g><!--class user--><g class="entity" data-entity="user" data-source-line="13" data-uid="ent0003" id="entity_user"><rect fill="#F1F1F1" height="162.0781" rx="2.5" ry="2.5" style="stroke:#181818;stroke-width:0.5;" width="204.3291" x="18.5" y="213"/><ellipse cx="100.4595" cy="229" fill="#ADD1B2" rx="11" ry="11" style="stroke:#181818;stroke-width:1;"/><path d="M104.5688,235 L96.8501,235 L96.8501,222.6094 L104.5688,222.6094 L104.5688,224.7656 L99.3032,224.7656 L99.3032,227.4375 L104.0688,227.4375 L104.0688,229.5938 L99.3032,229.5938 L99.3032,232.8438 L104.5688,232.8438 L104.5688,235 Z " fill="#000000"/><text fill="#000000" font-family="sans-serif" font-size="14" lengthAdjust="spacing" textLength="31.9102" x="120.9595" y="233.8467">User</text><line style="stroke:#181818;stroke-width:0.5;" x1="19.5" x2="221.8291" y1="245" y2="245"/><text fill="#000000" font-family="sans-serif" font-size="14" lengthAdjust="spacing" text-decoration="underline" textLength="12.7764" x="38.5" y="261.9951">id</text><text fill="#000000" font-family="sans-serif" font-size="14" lengthAdjust="spacing" textLength="59.5273" x="51.2764" y="261.9951">: Integer</text><text fill="#000000" font-family="sans-serif" font-size="14" lengthAdjust="spacing" textLength="121.1875" x="38.5" y="278.292">username: String</text><text fill="#000000" font-family="sans-serif" font-size="14" lengthAdjust="spacing" textLength="89.5576" x="38.5" y="294.5889">email: String</text><text fill="#000000" font-family="sans-serif" font-size="14" lengthAdjust="spacing" textLength="158.2793" x="38.5" y="310.8857">password_hash: String</text><polygon fill="none" points="29.5,318.8359,33.5,322.8359,29.5,326.8359,25.5,322.8359" style="stroke:#B38D22;stroke-width:1;"/><text fill="#000000" font-family="sans-serif" font-size="14" lengthAdjust="spacing" textLength="178.3291" x="38.5" y="327.1826">organization_id#: Integer</text><text fill="#000000" font-family="sans-serif" font-size="14" lengthAdjust="spacing" textLength="152.0244" x="38.5" y="343.4795">created_at: DateTime</text><text fill="#000000" font-family="sans-serif" font-size="14" lengthAdjust="spacing" textLength="126.5947" x="38.5" y="359.7764">is_active: Boolean</text><line style="stroke:#181818;stroke-width:0.5;" x1="19.5" x2="221.8291" y1="367.0781" y2="367.0781"/></g><!--class cluster--><g class="entity" data-entity="cluster" data-source-line="23" data-uid="ent0004" id="entity_cluster"><rect fill="#F1F1F1" height="243.5625" rx="2.5" ry="2.5" style="stroke:#181818;stroke-width:0.5;" width="228.8633" x="178" y="452"/><ellipse cx="263.3364" cy="468" fill="#ADD1B2" rx="11" ry="11" style="stroke:#181818;stroke-width:1;"/><path d="M267.4458,474 L259.7271,474 L259.7271,461.6094 L267.4458,461.6094 L267.4458,463.7656 L262.1802,463.7656 L262.1802,466.4375 L266.9458,466.4375 L266.9458,468.5938 L262.1802,468.5938 L262.1802,471.8438 L267.4458,471.8438 L267.4458,474 Z " fill="#000000"/><text fill="#000000" font-family="sans-serif" font-size="14" lengthAdjust="spacing" textLength="49.6904" x="283.8364" y="472.8467">Cluster</text><line style="stroke:#181818;stroke-width:0.5;" x1="179" x2="405.8633" y1="484" y2="484"/><text fill="#000000" font-family="sans-serif" font-size="14" lengthAdjust="spacing" text-decoration="underline" textLength="12.7764" x="198" y="500.9951">id</text><text fill="#000000" font-family="sans-serif" font-size="14" lengthAdjust="spacing" textLength="59.5273" x="210.7764" y="500.9951">: Integer</text><text fill="#000000" font-family="sans-serif" font-size="14" lengthAdjust="spacing" textLength="90.6514" x="198" y="517.292">name: String</text><polygon fill="none" points="189,525.2422,193,529.2422,189,533.2422,185,529.2422" style="stroke:#B38D22;stroke-width:1;"/><text fill="#000000" font-family="sans-serif" font-size="14" lengthAdjust="spacing" textLength="178.3291" x="198" y="533.5889">organization_id#: Integer</text><polygon fill="none" points="189,541.5391,193,545.5391,189,549.5391,185,545.5391" style="stroke:#B38D22;stroke-width:1;"/><text fill="#000000" font-family="sans-serif" font-size="14" lengthAdjust="spacing" textLength="134.292" x="198" y="549.8857">owner_id#: Integer</text><text fill="#000000" font-family="sans-serif" font-size="14" lengthAdjust="spacing" textLength="135.502" x="198" y="566.1826">total_ram_gb: Float</text><text fill="#000000" font-family="sans-serif" font-size="14" lengthAdjust="spacing" textLength="168.9229" x="198" y="582.4795">total_cpu_cores: Integer</text><text fill="#000000" font-family="sans-serif" font-size="14" lengthAdjust="spacing" textLength="171.6846" x="198" y="598.7764">total_gpu_count: Integer</text><text fill="#000000" font-family="sans-serif" font-size="14" lengthAdjust="spacing" textLength="166.6807" x="198" y="615.0732">available_ram_gb: Float</text><text fill="#000000" font-family="sans-serif" font-size="14" lengthAdjust="spacing" textLength="200.1016" x="198" y="631.3701">available_cpu_cores: Integer</text><text fill="#000000" font-family="sans-serif" font-size="14" lengthAdjust="spacing" textLength="202.8633" x="198" y="647.667">available_gpu_count: Integer</text><text fill="#000000" font-family="sans-serif" font-size="14" lengthAdjust="spacing" textLength="152.0244" x="198" y="663.9639">created_at: DateTime</text><text fill="#000000" font-family="sans-serif" font-size="14" lengthAdjust="spacing" textLength="126.5947" x="198" y="680.2607">is_active: Boolean</text><line style="stroke:#181818;stroke-width:0.5;" x1="179" x2="405.8633" y1="687.5625" y2="687.5625"/></g><!--class deployment--><g class="entity" data-entity="deployment" data-source-line="38" data-uid="ent0005" id="entity_deployment"><rect fill="#F1F1F1" height="292.4531" rx="2.5" ry="2.5" style="stroke:#181818;stroke-width:0.5;" width="224.9463" x="9" y="773"/><ellipse cx="74.4063" cy="789" fill="#ADD1B2" rx="11" ry="11" style="stroke:#181818;stroke-width:1;"/><path d="M78.5156,795 L70.7969,795 L70.7969,782.6094 L78.5156,782.6094 L78.5156,784.7656 L73.25,784.7656 L73.25,787.4375 L78.0156,787.4375 L78.0156,789.5938 L73.25,789.5938 L73.25,792.8438 L78.5156,792.8438 L78.5156,795 Z " fill="#000000"/><text fill="#000000" font-family="sans-serif" font-size="14" lengthAdjust="spacing" textLength="85.6338" x="94.9063" y="793.8467">Deployment</text><line style="stroke:#181818;stroke-width:0.5;" x1="10" x2="232.9463" y1="805" y2="805"/><text fill="#000000" font-family="sans-serif" font-size="14" lengthAdjust="spacing" text-decoration="underline" textLength="12.7764" x="29" y="821.9951">id</text><text fill="#000000" font-family="sans-serif" font-size="14" lengthAdjust="spacing" textLength="59.5273" x="41.7764" y="821.9951">: Integer</text><text fill="#000000" font-family="sans-serif" font-size="14" lengthAdjust="spacing" textLength="90.6514" x="29" y="838.292">name: String</text><polygon fill="none" points="20,846.2422,24,850.2422,20,854.2422,16,850.2422" style="stroke:#B38D22;stroke-width:1;"/><text fill="#000000" font-family="sans-serif" font-size="14" lengthAdjust="spacing" textLength="121.5703" x="29" y="854.5889">user_id#: Integer</text><polygon fill="none" points="20,862.5391,24,866.5391,20,870.5391,16,866.5391" style="stroke:#B38D22;stroke-width:1;"/><text fill="#000000" font-family="sans-serif" font-size="14" lengthAdjust="spacing" textLength="138.6465" x="29" y="870.8857">cluster_id#: Integer</text><text fill="#000000" font-family="sans-serif" font-size="14" lengthAdjust="spacing" textLength="149.1807" x="29" y="887.1826">docker_image: String</text><text fill="#000000" font-family="sans-serif" font-size="14" lengthAdjust="spacing" textLength="162.7637" x="29" y="903.4795">required_ram_gb: Float</text><text fill="#000000" font-family="sans-serif" font-size="14" lengthAdjust="spacing" textLength="196.1846" x="29" y="919.7764">required_cpu_cores: Integer</text><text fill="#000000" font-family="sans-serif" font-size="14" lengthAdjust="spacing" textLength="198.9463" x="29" y="936.0732">required_gpu_count: Integer</text><text fill="#000000" font-family="sans-serif" font-size="14" lengthAdjust="spacing" textLength="99.9141" x="29" y="952.3701">priority: Enum</text><text fill="#000000" font-family="sans-serif" font-size="14" lengthAdjust="spacing" textLength="92.415" x="29" y="968.667">status: Enum</text><text fill="#000000" font-family="sans-serif" font-size="14" lengthAdjust="spacing" textLength="152.0244" x="29" y="984.9639">created_at: DateTime</text><text fill="#000000" font-family="sans-serif" font-size="14" lengthAdjust="spacing" textLength="170.0166" x="29" y="1001.2607">scheduled_at: DateTime</text><text fill="#000000" font-family="sans-serif" font-size="14" lengthAdjust="spacing" textLength="148.4971" x="29" y="1017.5576">started_at: DateTime</text><text fill="#000000" font-family="sans-serif" font-size="14" lengthAdjust="spacing" textLength="172.6689" x="29" y="1033.8545">completed_at: DateTime</text><text fill="#000000" font-family="sans-serif" font-size="14" lengthAdjust="spacing" textLength="118.5283" x="29" y="1050.1514">meta_data: JSON</text><line style="stroke:#181818;stroke-width:0.5;" x1="10" x2="232.9463" y1="1057.4531" y2="1057.4531"/></g><!--class metrics--><g class="entity" data-entity="metrics" data-source-line="56" data-uid="ent0006" id="entity_metrics"><rect fill="#F1F1F1" height="129.4844" rx="2.5" ry="2.5" style="stroke:#181818;stroke-width:0.5;" width="200.7744" x="21" y="1142"/><ellipse cx="55.39" cy="1158" fill="#ADD1B2" rx="11" ry="11" style="stroke:#181818;stroke-width:1;"/><path d="M59.4994,1164 L51.7806,1164 L51.7806,1151.6094 L59.4994,1151.6094 L59.4994,1153.7656 L54.2337,1153.7656 L54.2337,1156.4375 L58.9994,1156.4375 L58.9994,1158.5938 L54.2337,1158.5938 L54.2337,1161.8438 L59.4994,1161.8438 L59.4994,1164 Z " fill="#000000"/><text fill="#000000" font-family="sans-serif" font-size="14" lengthAdjust="spacing" textLength="125.6855" x="73.6989" y="1162.8467">MonitoringMetrics</text><line style="stroke:#181818;stroke-width:0.5;" x1="22" x2="220.7744" y1="1174" y2="1174"/><text fill="#000000" font-family="sans-serif" font-size="14" lengthAdjust="spacing" text-decoration="underline" textLength="12.7764" x="41" y="1190.9951">id</text><text fill="#000000" font-family="sans-serif" font-size="14" lengthAdjust="spacing" textLength="59.5273" x="53.7764" y="1190.9951">: Integer</text><polygon fill="none" points="32,1198.9453,36,1202.9453,32,1206.9453,28,1202.9453" style="stroke:#B38D22;stroke-width:1;"/><text fill="#000000" font-family="sans-serif" font-size="14" lengthAdjust="spacing" textLength="174.7744" x="41" y="1207.292">deployment_id#: Integer</text><text fill="#000000" font-family="sans-serif" font-size="14" lengthAdjust="spacing" textLength="142.7344" x="41" y="1223.5889">metric_name: String</text><text fill="#000000" font-family="sans-serif" font-size="14" lengthAdjust="spacing" textLength="134.0664" x="41" y="1239.8857">metric_value: Float</text><text fill="#000000" font-family="sans-serif" font-size="14" lengthAdjust="spacing" textLength="152.8379" x="41" y="1256.1826">timestamp: DateTime</text><line style="stroke:#181818;stroke-width:0.5;" x1="22" x2="220.7744" y1="1263.4844" y2="1263.4844"/></g><!--link organization to user--><g class="link" data-entity-1="organization" data-entity-2="user" data-source-line="65" data-uid="lnk7" id="link_organization_user"><path codeLine="65" d="M178.7219,143.7327 C169.3919,167.6427 168.1191,170.8998 158.2891,196.1098" fill="none" id="organization-user" style="stroke:#181818;stroke-width:1;"/><line style="stroke:#181818;stroke-width:1;" x1="176.4496" x2="183.9023" y1="138.5523" y2="141.4604"/><line style="stroke:#181818;stroke-width:1;" x1="175.359" x2="182.8117" y1="141.347" y2="144.2552"/><line style="stroke:#181818;stroke-width:1;" x1="178.7219" x2="181.63" y1="143.7327" y2="136.28"/><line style="stroke:#181818;stroke-width:1;" x1="154.6563" x2="157.3401" y1="205.4266" y2="215.0597"/><line style="stroke:#181818;stroke-width:1;" x1="154.6563" x2="146.1599" y1="205.4266" y2="210.7003"/><line style="stroke:#181818;stroke-width:1;" x1="154.6563" x2="151.75" y1="205.4266" y2="212.88"/><ellipse cx="156.836" cy="199.8365" fill="none" rx="4" ry="4" style="stroke:#181818;stroke-width:1;"/><text fill="#000000" font-family="sans-serif" font-size="13" lengthAdjust="spacing" textLength="22.9785" x="170.5" y="179.0669">has</text></g><!--link organization to cluster--><g class="link" data-entity-1="organization" data-entity-2="cluster" data-source-line="66" data-uid="lnk8" id="link_organization_cluster"><path codeLine="66" d="M224.5492,144.0286 C230.3092,167.9986 234.69,187.77 239.5,213 C254.59,292.12 265.38,363.8921 274.84,433.9121" fill="none" id="organization-cluster" style="stroke:#181818;stroke-width:1;"/><line style="stroke:#181818;stroke-width:1;" x1="219.7253" x2="227.5039" y1="141.0739" y2="139.2047"/><line style="stroke:#181818;stroke-width:1;" x1="220.4263" x2="228.2048" y1="143.9908" y2="142.1217"/><line style="stroke:#181818;stroke-width:1;" x1="224.5492" x2="222.68" y1="144.0286" y2="136.25"/><line style="stroke:#181818;stroke-width:1;" x1="276.1789" x2="283.196" y1="443.822" y2="450.9467"/><line style="stroke:#181818;stroke-width:1;" x1="276.1789" x2="271.304" y1="443.822" y2="452.5533"/><line style="stroke:#181818;stroke-width:1;" x1="276.1789" x2="277.25" y1="443.822" y2="451.75"/><ellipse cx="275.3756" cy="437.876" fill="none" rx="4" ry="4" style="stroke:#181818;stroke-width:1;"/><text fill="#000000" font-family="sans-serif" font-size="13" lengthAdjust="spacing" textLength="33.5981" x="267.5" y="298.5669">owns</text></g><!--link user to cluster--><g class="link" data-entity-1="user" data-entity-2="cluster" data-source-line="67" data-uid="lnk9" id="link_user_cluster"><path codeLine="67" d="M174.2299,381.8427 C189.0699,405.8227 192.0005,410.5622 208.0905,436.5722" fill="none" id="user-cluster" style="stroke:#181818;stroke-width:1;"/><line style="stroke:#181818;stroke-width:1;" x1="168.7236" x2="175.5263" y1="380.5463" y2="376.3364"/><line style="stroke:#181818;stroke-width:1;" x1="170.3023" x2="177.105" y1="383.0973" y2="378.8875"/><line style="stroke:#181818;stroke-width:1;" x1="174.2299" x2="170.02" y1="381.8427" y2="375.04"/><line style="stroke:#181818;stroke-width:1;" x1="213.3513" x2="222.6626" y1="445.0765" y2="448.7235"/><line style="stroke:#181818;stroke-width:1;" x1="213.3513" x2="212.4574" y1="445.0765" y2="455.0365"/><line style="stroke:#181818;stroke-width:1;" x1="213.3513" x2="217.56" y1="445.0765" y2="451.88"/><ellipse cx="210.1948" cy="439.9739" fill="none" rx="4" ry="4" style="stroke:#181818;stroke-width:1;"/><text fill="#000000" font-family="sans-serif" font-size="13" lengthAdjust="spacing" textLength="33.5981" x="197.5" y="418.0669">owns</text></g><!--link user to deployment--><g class="link" data-entity-1="user" data-entity-2="deployment" data-source-line="68" data-uid="lnk10" id="link_user_deployment"><path codeLine="68" d="M113.881,383.2131 C112.281,407.8231 111.29,427.02 110.5,452 C107.05,560.39 107.82,587.59 110.5,696 C111.12,720.88 111.3062,729.3384 112.4662,754.9684" fill="none" id="user-deployment" style="stroke:#181818;stroke-width:1;"/><line style="stroke:#181818;stroke-width:1;" x1="110.1489" x2="118.1321" y1="378.9621" y2="379.4811"/><line style="stroke:#181818;stroke-width:1;" x1="109.9543" x2="117.9374" y1="381.9557" y2="382.4748"/><line style="stroke:#181818;stroke-width:1;" x1="113.881" x2="114.4" y1="383.2131" y2="375.23"/><line style="stroke:#181818;stroke-width:1;" x1="112.9183" x2="119.2739" y1="764.9582" y2="772.6787"/><line style="stroke:#181818;stroke-width:1;" x1="112.9183" x2="107.2861" y1="764.9582" y2="773.2213"/><line style="stroke:#181818;stroke-width:1;" x1="112.9183" x2="113.28" y1="764.9582" y2="772.95"/><ellipse cx="112.647" cy="758.9643" fill="none" rx="4" ry="4" style="stroke:#181818;stroke-width:1;"/><text fill="#000000" font-family="sans-serif" font-size="13" lengthAdjust="spacing" textLength="48.3247" x="111.5" y="578.5669">creates</text></g><!--link cluster to deployment--><g class="link" data-entity-1="cluster" data-entity-2="deployment" data-source-line="69" data-uid="lnk11" id="link_cluster_deployment"><path codeLine="69" d="M228.4027,703.5706 C216.0627,728.3406 214.5521,731.3615 201.8421,756.8515" fill="none" id="cluster-deployment" style="stroke:#181818;stroke-width:1;"/><line style="stroke:#181818;stroke-width:1;" x1="226.606" x2="233.7667" y1="698.2067" y2="701.774"/><line style="stroke:#181818;stroke-width:1;" x1="225.2683" x2="232.4289" y1="700.8919" y2="704.4592"/><line style="stroke:#181818;stroke-width:1;" x1="228.4027" x2="231.97" y1="703.5706" y2="696.41"/><line style="stroke:#181818;stroke-width:1;" x1="197.3798" x2="199.1795" y1="765.8007" y2="775.6374"/><line style="stroke:#181818;stroke-width:1;" x1="197.3798" x2="188.4405" y1="765.8007" y2="770.2826"/><line style="stroke:#181818;stroke-width:1;" x1="197.3798" x2="193.81" y1="765.8007" y2="772.96"/><ellipse cx="200.0572" cy="760.4311" fill="none" rx="4" ry="4" style="stroke:#181818;stroke-width:1;"/><text fill="#000000" font-family="sans-serif" font-size="13" lengthAdjust="spacing" textLength="34.8359" x="213.5" y="739.0669">hosts</text></g><!--link deployment to metrics--><g class="link" data-entity-1="deployment" data-entity-2="metrics" data-source-line="70" data-uid="lnk12" id="link_deployment_metrics"><path codeLine="70" d="M121.5,1073.26 C121.5,1100.12 121.5,1100.86 121.5,1123.68" fill="none" id="deployment-metrics" style="stroke:#181818;stroke-width:1;"/><line style="stroke:#181818;stroke-width:1;" x1="117.5" x2="125.5" y1="1069.26" y2="1069.26"/><line style="stroke:#181818;stroke-width:1;" x1="117.5" x2="125.5" y1="1072.26" y2="1072.26"/><line style="stroke:#181818;stroke-width:1;" x1="121.5" x2="121.5" y1="1073.26" y2="1065.26"/><line style="stroke:#181818;stroke-width:1;" x1="121.5" x2="127.5" y1="1133.68" y2="1141.68"/><line style="stroke:#181818;stroke-width:1;" x1="121.5" x2="115.5" y1="1133.68" y2="1141.68"/><line style="stroke:#181818;stroke-width:1;" x1="121.5" x2="121.5" y1="1133.68" y2="1141.68"/><ellipse cx="121.5" cy="1127.68" fill="none" rx="4" ry="4" style="stroke:#181818;stroke-width:1;"/><text fill="#000000" font-family="sans-serif" font-size="13" lengthAdjust="spacing" textLength="22.9785" x="122.5" y="1108.0669">has</text></g><!--SRC=[fLHDRzim3BtxLwZ9OGtGOdSZ2B2j3R01NO6rEnkipJf2zU59L9gitNyV_P54XfqXo7II-HvfyZr95mK-IuE2u4dXvMOcSWNUYusOpyNbuzLqkVp4QoOMY-IYerPEQd3Rx0MtTS8yB3RpZ-60Frk7iZGxVBgP9WaQahGLatjNWf6_WQGr4m5Us2WWtXB1AwulYraglXh24bq36j2OYWToqfHDG9gr9CnoM_JZkKCWB3AWLDpmxb5gR1Dy1Zd9DTC_MwiGJFBdqE1FZwvfBF3cb8Pgtg0fr21LBrAngg_M5TaA_Ag7n7B5QcI3NvqvqXSLF7LJvUt-BALFRxJ7V3NeXXIo12fpeBFoAHLBPO6YU5u5TjIX7qig6p0OweEmPithKpnIzO0TgNmW7Ab-flOtM2cxrVpPo5_iF__RWVhS_LlvpkiXgR3vIntNKFRhE_mLfECfXmhkeIC2xl4Z-l6Wrh4agRWrGJSXJq31Hu6Z6ljyXKLGen216yt9hQuKZa8Q2R8225BnxU7-U-pNdJMIR2t87R8kkMziq-t-5CzY0mvk3preIsO3Yxlu6bJ0thtWvdbMNKMpSDyVn0zKpItqArdvfFUSlhzVNzktzYLBnOHVdiaeOVSeC8TlAvEQZ5F0w3mptlh7b5tEA6jbFJ4d2dQqdSfTgty1]--></g></svg>